<?xml version="1.0" encoding="utf-8"?>
<!-- Generator: Adobe Illustrator 19.2.1, SVG Export Plug-In . SVG Version: 6.00 Build 0)  -->
<!DOCTYPE svg PUBLIC "-//W3C//DTD SVG 1.1//EN" "http://www.w3.org/Graphics/SVG/1.1/DTD/svg11.dtd">
<svg version="1.1" id="Layer_1" xmlns="http://www.w3.org/2000/svg" xmlns:xlink="http://www.w3.org/1999/xlink" x="0px" y="0px"
	 viewBox="0 0 150 147" style="enable-background:new 0 0 150 147;" xml:space="preserve">
<style type="text/css">
	.st0{fill:#DE3D2E;}
	.st1{fill:none;stroke:#FFFFFF;stroke-width:6;}
	.st2{fill:none;stroke:#FFFFFF;stroke-width:3;}
</style>
<g id="rectangle-1" transform="translate(24 339)">
	<rect x="-21" y="-336" class="st0" width="144" height="141"/>
	<rect x="-21" y="-336" class="st1" width="144" height="141"/>
</g>
<g id="group-112" transform="translate(-454 -333)">
	<g id="group-85" transform="translate(6.5 41.596)">
		<circle id="ellipse" class="st2" cx="522.729" cy="335.153" r="10.531"/>
		<path id="path" class="st2" d="M522.575,376.277c-0.013-0.026-0.221-0.312-0.7-0.948c-0.909-1.221-2.987-4.181-7.648-11.18
			c-8.09-12.154-12.726-18.452-12.726-29c-0.0069-11.6322,9.4174-21.0676,21.0496-21.0744
			c11.6322-0.0069,21.0676,9.4173,21.0745,21.0496c0,0.0083,0,0.0166,0,0.0248c0,10.531-4.635,16.842-12.725,29
			c-4.662,7-6.739,9.973-7.648,11.18C522.809,375.965,522.588,376.251,522.575,376.277z"/>
	</g>
</g>
</svg>
