<?xml version="1.0" encoding="utf-8"?>
<!-- Generator: Adobe Illustrator 19.2.1, SVG Export Plug-In . SVG Version: 6.00 Build 0)  -->
<!DOCTYPE svg PUBLIC "-//W3C//DTD SVG 1.1//EN" "http://www.w3.org/Graphics/SVG/1.1/DTD/svg11.dtd">
<svg version="1.1" id="Layer_1" xmlns="http://www.w3.org/2000/svg" xmlns:xlink="http://www.w3.org/1999/xlink" x="0px" y="0px"
	 viewBox="0 0 296.703 132.325" style="enable-background:new 0 0 296.703 132.325;" xml:space="preserve">
<style type="text/css">
	.st0{fill:#FFFFFF;}
</style>
<circle class="st0" cx="216.721" cy="24.035" r="3.258"/>
<circle class="st0" cx="236.591" cy="24.035" r="3.258"/>
<g>
	<path class="st0" d="M25.928,43.087c8.986,0,14.468,3.457,17.251,10.879l0.456,1.217h6.358l-0.66-2.377
		c-1.046-3.768-5.827-16.061-23.405-16.061c-13.612,0-21.746,9.08-21.746,17.858c0,12.071,11.479,15.314,21.606,18.177
		c10.747,3.036,17.272,5.393,17.272,12.493c0,6.162-6.55,12.812-17.132,12.812c-9.582,0-15.266-3.791-19.007-12.676l-0.483-1.147H0
		l0.822,2.468c3.748,11.247,12.899,17.697,25.105,17.697c14.499,0,23.474-9.942,23.474-19.154c0-12.41-11.649-15.693-21.927-18.59
		c-10.547-2.973-16.951-5.269-16.951-12.08C10.523,49.02,15.922,43.087,25.928,43.087z"/>
	<polygon class="st0" points="85.656,66.983 60.032,66.983 60.032,39.337 53.69,39.337 53.69,101.836 60.032,101.836 60.032,73.326 
		85.656,73.326 85.656,101.836 91.998,101.836 91.998,39.337 85.656,39.337 	"/>
	<path class="st0" d="M129.632,36.745c-17.641,0-32.545,15.498-32.545,33.842s14.904,33.841,32.545,33.841
		c17.642,0,32.545-15.497,32.545-33.841S147.273,36.745,129.632,36.745z M129.632,43.087c14.449,0,26.204,12.337,26.204,27.5
		s-11.755,27.499-26.204,27.499c-14.448,0-26.203-12.336-26.203-27.499S115.184,43.087,129.632,43.087z"/>
	<path class="st0" d="M184.596,39.337h-16.995v62.499h6.342V83.693h10.653c13.821,0,23.474-9.155,23.474-22.265
		C208.07,48.628,198.198,39.337,184.596,39.337z M184.596,77.351h-10.653V45.678h10.653c10.407,0,17.132,6.183,17.132,15.75
		C201.728,71.101,195.003,77.351,184.596,77.351z"/>
	<rect x="213.55" y="39.337" class="st0" width="6.342" height="62.499"/>
	<rect x="233.42" y="39.337" class="st0" width="6.342" height="60.624"/>
	<polygon class="st0" points="245.035,45.678 256.986,45.678 256.986,101.836 263.328,101.836 263.328,45.678 275.28,45.678 
		275.28,39.337 245.035,39.337 	"/>
</g>
<g>
	<path class="st0" d="M280.288,41.433V39.82h6.854v1.613h-2.534v6.451h-1.786v-6.451H280.288z"/>
	<path class="st0" d="M289.849,42.298h-0.115v5.587h-1.785V39.82h1.958l2.42,2.995l2.419-2.995h1.958v8.064h-1.785v-5.587h-0.115
		l-2.477,3.053L289.849,42.298z"/>
</g>
</svg>
