<?xml version="1.0" encoding="utf-8"?>
<!-- Generator: Adobe Illustrator 19.2.1, SVG Export Plug-In . SVG Version: 6.00 Build 0)  -->
<!DOCTYPE svg PUBLIC "-//W3C//DTD SVG 1.1//EN" "http://www.w3.org/Graphics/SVG/1.1/DTD/svg11.dtd">
<svg version="1.1" id="Layer_1" xmlns="http://www.w3.org/2000/svg" xmlns:xlink="http://www.w3.org/1999/xlink" x="0px" y="0px"
	 viewBox="0 0 163.84 163.84" style="enable-background:new 0 0 163.84 163.84;" xml:space="preserve">
<style type="text/css">
	.st0{fill:#B81500;}
	.st1{fill:#DE3D2E;}
	.st2{fill:#FFFFFF;}
	.st3{fill:#FFFFFF;stroke:#FFFFFF;stroke-width:4.25;stroke-miterlimit:10;}
</style>
<path class="st0" d="M37.1673,38.166l-4.6119,10.9189c-0.0198,0.0476-0.027,0.0996-0.0209,0.1508l4.8902,41.1759l0.4043,28.0156
	l1.1105,21.6118c0.111,2.1595,2.1341,3.7027,4.2461,3.2389l21.3376-4.6859l29.1788-4.3216l26.0722-4.6153
	c1.0625-0.1551,2.0657-0.5863,2.9094-1.2505l14.6875-12.7989C142.3589,110.2299,37.8,45.5741,37.1673,38.166z"/>
<path class="st1" d="M135.4993,98.8111c-1.4253-6.9218-2.6449-10.3243-4.1581-17.1266c-1.9591-6.7186-2.4905-10.0522-4.4498-16.7841
	c-1.4976-6.8202-2.7079-10.2403-4.1076-17.2193c-1.6517-6.4861-1.6677-10.3627-2.9884-16.8111
	c-0.1322-0.6456-0.7594-1.0701-1.4097-0.9634c-7.404,1.2157-11.5163,2.2551-19.3645,3.4037
	c-8.2831,1.0489-12.9112,0.6208-21.1994,1.5958c-8.3016,0.6726-12.4523,1.4562-20.6768,2.058
	c-8.0221,1.027-12.0393,0.1552-19.8239,1.0881c-0.103,0.0123-0.1821,0.1082-0.1733,0.2116
	c0.6197,7.2566,0.9729,12.6689,1.6299,19.6392c0.0096,0.1017,0.0228,0.2094,0.0381,0.3104
	c1.0723,7.0941,1.6175,10.6254,2.5967,17.6447c1.2773,6.9712,1.8925,10.4736,2.9309,17.4027
	c0.0246,0.1644,0.042,0.3404,0.0506,0.5064c0.3627,6.966,1.3601,10.5565,1.3424,17.8219c0.5249,6.2517,0.7726,9.8889,0.9115,15.5932
	c0.0427,1.7539,1.5713,3.105,3.3169,2.929c5.1086-0.5151,8.0889-0.9289,14.1903-1.663c0.1964-0.0236,0.4038-0.0605,0.5963-0.1061
	c7.1058-1.6837,10.8208-2.5985,17.9069-4.3383c0.2379-0.0584,0.4935-0.1022,0.7373-0.1263
	c7.1753-0.7105,10.9362-1.1017,18.1383-1.8118c0.1811-0.0179,0.3726-0.0468,0.5509-0.0832
	c7.1894-1.4693,10.8929-2.2155,18.034-3.5721c0.1207-0.0229,0.2512-0.0429,0.3732-0.0573
	c6.5464-0.7749,9.8141-1.5354,15.6658-2.1583c1.1267-0.1199,1.9274-1.1594,1.752-2.2789
	C137.0047,108.1382,136.7301,105.0409,135.4993,98.8111z"/>
<circle class="st2" cx="68.9952" cy="35.0709" r="3.2582"/>
<circle class="st2" cx="88.8657" cy="35.0709" r="3.2582"/>
<g>
	<path class="st1" d="M89.9648,29.6869c0.2724,0.0377,0.5494-0.1498,0.6155-0.4168c0,0,0.0403-0.1628,0.1046-0.4892
		c1.5956-8.1016-3.3365-17.0392-12.149-17.7025c-10.1229-0.7619-12.977,8.7985-11.8501,17.1532
		c0.0323,0.2392,0.1067,0.646,0.1753,0.9867c0.0676,0.3356,0.3754,0.5664,0.7165,0.5369l1.6716-0.1443
		c0.2705-0.0234,0.4627-0.2726,0.4152-0.5399c-0.0852-0.4795-0.2019-1.148-0.2389-1.429
		c-0.8751-6.6364,1.0407-14.7162,9.3658-13.7036c6.8722,0.8358,10.3922,7.9278,9.1574,14.2424
		c-0.066,0.3377-0.1728,0.7036-0.1728,0.7036c-0.077,0.264,0.0829,0.5109,0.3553,0.5486L89.9648,29.6869z"/>
</g>
<g>
	<g>
		<g>
			<path class="st3" d="M62.3418,66.9171c-1.1701-8.3255,5.6089-17.3214,17.8782-19.0457
				c12.7075-1.7859,20.7038,4.2397,24.0032,11.8191l-2.6291,0.3695c-3.6144-6.6415-9.6117-11.1607-21.0046-9.5595
				c-10.9548,1.5396-16.6038,9.0361-15.6185,16.0471c2.5865,18.4041,40.7918,4.0979,43.8094,25.5689
				c1.2317,8.764-6.3003,18.7593-19.446,20.6069c-13.1457,1.8475-21.6419-4.5547-26.0024-13.3255l2.6291-0.3695
				c4.6757,7.8328,11.1727,12.7287,23.0038,11.0659s18.2211-10.2464,17.1864-17.6083
				C103.5032,73.6441,65.2978,87.9503,62.3418,66.9171z"/>
		</g>
	</g>
</g>
</svg>
